<svg width="100" height="100" viewBox="0 0 100 100" fill="none" xmlns="http://www.w3.org/2000/svg">
<g clip-path="url(#clip0_471_269)">
<path d="M50 25C46.5417 25 43.2917 24.3433 40.25 23.03C37.2083 21.7167 34.5625 19.9358 32.3125 17.6875C30.0625 15.4392 28.2817 12.7933 26.97 9.74999C25.6583 6.70666 25.0017 3.45666 25 -7.62939e-06C24.9983 -3.45667 25.655 -6.70667 26.97 -9.75C28.285 -12.7933 30.0658 -15.4392 32.3125 -17.6875C34.5592 -19.9358 37.205 -21.7167 40.25 -23.03C43.295 -24.3433 46.545 -25 50 -25C53.455 -25 56.705 -24.3433 59.75 -23.03C62.795 -21.7167 65.4408 -19.9358 67.6875 -17.6875C69.9341 -15.4392 71.7158 -12.7933 73.0325 -9.75C74.3491 -6.70667 75.005 -3.45667 75 -7.62939e-06C74.995 3.45666 74.3383 6.70666 73.03 9.74999C71.7216 12.7933 69.9408 15.4392 67.6875 17.6875C65.4341 19.9358 62.7883 21.7175 59.75 23.0325C56.7116 24.3475 53.4617 25.0033 50 25ZM62.5 -6.25001L65.875 -7.375L66.875 -10.75C65.5416 -12.75 63.9375 -14.4683 62.0625 -15.905C60.1875 -17.3417 58.125 -18.415 55.875 -19.125L52.5 -16.75V-13.25L62.5 -6.25001ZM37.5 -6.25001L47.5 -13.25V-16.75L44.125 -19.125C41.875 -18.4167 39.8125 -17.3442 37.9375 -15.9075C36.0625 -14.4708 34.4583 -12.7517 33.125 -10.75L34.125 -7.375L37.5 -6.25001ZM34.875 13L37.75 12.75L39.625 9.37499L36 -1.50001L32.5 -2.75001L30 -0.875008C30 1.83332 30.375 4.30166 31.125 6.52999C31.875 8.75832 33.125 10.915 34.875 13ZM50 20C51.0833 20 52.1458 19.9167 53.1875 19.75C54.2291 19.5833 55.25 19.3333 56.25 19L58 15.25L56.375 12.5H43.625L42 15.25L43.75 19C44.75 19.3333 45.7708 19.5833 46.8125 19.75C47.8542 19.9167 48.9167 20 50 20ZM44.375 7.49999H55.625L59.125 -2.50001L50 -8.87501L41 -2.50001L44.375 7.49999ZM65.125 13C66.875 10.9167 68.125 8.76082 68.875 6.53249C69.625 4.30416 70 1.83499 70 -0.875008L67.5 -2.62501L64 -1.50001L60.375 9.37499L62.25 12.75L65.125 13Z" fill="white" fill-opacity="0.3"/>
<path d="M0 25C13.8075 25 25 36.1925 25 50C25 63.8075 13.8075 75 0 75C-13.8075 75 -25 63.8075 -25 50C-25 36.1925 -13.8075 25 0 25ZM0.915 53.415L-7.7575 68.44C-4.23732 69.9118 -0.371604 70.354 3.39 69.715C2.72609 65.0434 3.40592 60.2794 5.35 55.98L0.915 53.415ZM9.71 58.4925C8.4132 61.5634 7.90859 64.9108 8.2425 68.2275C11.279 66.8539 13.9241 64.7433 15.9375 62.0875L9.71 58.4925ZM-7.8525 48.355C-10.6035 52.1889 -14.3883 55.1612 -18.765 56.925C-17.4444 60.5046 -15.1274 63.6318 -12.0875 65.9375L-3.415 50.915L-7.8525 48.355ZM19.905 48.03L19.26 48.33C16.4884 49.6994 14.0744 51.6965 12.21 54.1625L18.44 57.76C19.7314 54.6885 20.235 51.3456 19.905 48.03ZM-20 50C-20 50.6667 -19.9683 51.3242 -19.905 51.9725C-16.8665 50.6056 -14.2204 48.4968 -12.21 45.84L-18.44 42.2425C-19.4714 44.6986 -20.0018 47.3361 -20 50ZM12.0875 34.065L3.415 49.085L7.8525 51.6475C10.6035 47.8114 14.3892 44.8373 18.7675 43.0725C17.5399 39.7523 15.453 36.8174 12.72 34.5675L12.0875 34.065ZM0 30C-1.15833 30.0017 -2.28917 30.0975 -3.3925 30.2875C-2.72719 34.9591 -3.40708 39.7235 -5.3525 44.0225L-0.915 46.585L7.7575 31.56C5.30136 30.5286 2.66392 29.9982 0 30ZM-8.2425 31.775L-8.72 31.995C-11.5579 33.371 -14.0302 35.3987 -15.935 37.9125L-9.71 41.5075C-8.41361 38.4374 -7.90901 35.0909 -8.2425 31.775Z" fill="white" fill-opacity="0.3"/>
<path d="M100 25C113.807 25 125 36.1925 125 50C125 63.8075 113.807 75 100 75C86.1925 75 75 63.8075 75 50C75 36.1925 86.1925 25 100 25ZM100.915 53.415L92.2425 68.44C95.7627 69.9118 99.6284 70.354 103.39 69.715C102.726 65.0434 103.406 60.2794 105.35 55.98L100.915 53.415ZM109.71 58.4925C108.413 61.5634 107.909 64.9108 108.242 68.2275C111.279 66.8539 113.924 64.7433 115.938 62.0875L109.71 58.4925ZM92.1475 48.355C89.3965 52.1889 85.6117 55.1612 81.235 56.925C82.5556 60.5046 84.8726 63.6318 87.9125 65.9375L96.585 50.915L92.1475 48.355ZM119.905 48.03L119.26 48.33C116.488 49.6994 114.074 51.6965 112.21 54.1625L118.44 57.76C119.731 54.6885 120.235 51.3456 119.905 48.03ZM80 50C80 50.6667 80.0317 51.3242 80.095 51.9725C83.1335 50.6056 85.7796 48.4968 87.79 45.84L81.56 42.2425C80.5286 44.6986 79.9982 47.3361 80 50ZM112.087 34.065L103.415 49.085L107.852 51.6475C110.603 47.8114 114.389 44.8373 118.767 43.0725C117.54 39.7523 115.453 36.8174 112.72 34.5675L112.087 34.065ZM100 30C98.8417 30.0017 97.7108 30.0975 96.6075 30.2875C97.2728 34.9591 96.5929 39.7235 94.6475 44.0225L99.085 46.585L107.757 31.56C105.301 30.5286 102.664 29.9982 100 30ZM91.7575 31.775L91.28 31.995C88.4421 33.371 85.9698 35.3987 84.065 37.9125L90.29 41.5075C91.5864 38.4374 92.091 35.0909 91.7575 31.775Z" fill="white" fill-opacity="0.3"/>
<path d="M50 125C46.5417 125 43.2917 124.343 40.25 123.03C37.2083 121.717 34.5625 119.936 32.3125 117.687C30.0625 115.439 28.2817 112.793 26.97 109.75C25.6583 106.707 25.0017 103.457 25 100C24.9983 96.5433 25.655 93.2933 26.97 90.25C28.285 87.2067 30.0658 84.5608 32.3125 82.3125C34.5592 80.0642 37.205 78.2833 40.25 76.97C43.295 75.6567 46.545 75 50 75C53.455 75 56.705 75.6567 59.75 76.97C62.795 78.2833 65.4408 80.0642 67.6875 82.3125C69.9341 84.5608 71.7158 87.2067 73.0325 90.25C74.3491 93.2933 75.005 96.5433 75 100C74.995 103.457 74.3383 106.707 73.03 109.75C71.7216 112.793 69.9408 115.439 67.6875 117.687C65.4341 119.936 62.7883 121.717 59.75 123.032C56.7116 124.347 53.4617 125.003 50 125ZM62.5 93.75L65.875 92.625L66.875 89.25C65.5416 87.25 63.9375 85.5317 62.0625 84.095C60.1875 82.6583 58.125 81.585 55.875 80.875L52.5 83.25V86.75L62.5 93.75ZM37.5 93.75L47.5 86.75V83.25L44.125 80.875C41.875 81.5833 39.8125 82.6558 37.9375 84.0925C36.0625 85.5292 34.4583 87.2483 33.125 89.25L34.125 92.625L37.5 93.75ZM34.875 113L37.75 112.75L39.625 109.375L36 98.5L32.5 97.25L30 99.125C30 101.833 30.375 104.302 31.125 106.53C31.875 108.758 33.125 110.915 34.875 113ZM50 120C51.0833 120 52.1458 119.917 53.1875 119.75C54.2291 119.583 55.25 119.333 56.25 119L58 115.25L56.375 112.5H43.625L42 115.25L43.75 119C44.75 119.333 45.7708 119.583 46.8125 119.75C47.8542 119.917 48.9167 120 50 120ZM44.375 107.5H55.625L59.125 97.5L50 91.125L41 97.5L44.375 107.5ZM65.125 113C66.875 110.917 68.125 108.761 68.875 106.532C69.625 104.304 70 101.835 70 99.125L67.5 97.375L64 98.5L60.375 109.375L62.25 112.75L65.125 113Z" fill="white" fill-opacity="0.3"/>
</g>
<defs>
<clipPath id="clip0_471_269">
<rect width="100" height="100" fill="white"/>
</clipPath>
</defs>
</svg>
