<svg width="27" height="28" viewBox="0 0 27 28" fill="none" xmlns="http://www.w3.org/2000/svg">
<g clip-path="url(#clip0_189_314)">
<path d="M13.5 2.93105C17.107 2.93105 17.5342 2.94687 18.9527 3.01016C20.2711 3.06816 20.983 3.28965 21.4576 3.47422C22.0852 3.7168 22.5387 4.01211 23.008 4.48145C23.4826 4.95605 23.7727 5.4043 24.0152 6.03184C24.1998 6.50645 24.4213 7.22363 24.4793 8.53672C24.5426 9.96055 24.5584 10.3877 24.5584 13.9895C24.5584 17.5965 24.5426 18.0236 24.4793 19.4422C24.4213 20.7605 24.1998 21.4725 24.0152 21.9471C23.7727 22.5746 23.4773 23.0281 23.008 23.4975C22.5334 23.9721 22.0852 24.2621 21.4576 24.5047C20.983 24.6893 20.2658 24.9107 18.9527 24.9688C17.5289 25.032 17.1018 25.0479 13.5 25.0479C9.89297 25.0479 9.46582 25.032 8.04727 24.9688C6.72891 24.9107 6.01699 24.6893 5.54238 24.5047C4.91484 24.2621 4.46133 23.9668 3.99199 23.4975C3.51738 23.0229 3.22734 22.5746 2.98477 21.9471C2.8002 21.4725 2.57871 20.7553 2.5207 19.4422C2.45742 18.0184 2.4416 17.5912 2.4416 13.9895C2.4416 10.3824 2.45742 9.95527 2.5207 8.53672C2.57871 7.21836 2.8002 6.50645 2.98477 6.03184C3.22734 5.4043 3.52266 4.95078 3.99199 4.48145C4.4666 4.00684 4.91484 3.7168 5.54238 3.47422C6.01699 3.28965 6.73418 3.06816 8.04727 3.01016C9.46582 2.94687 9.89297 2.93105 13.5 2.93105ZM13.5 0.5C9.83496 0.5 9.37617 0.51582 7.93652 0.579102C6.50215 0.642383 5.51602 0.874414 4.66172 1.20664C3.77051 1.55469 3.01641 2.01348 2.26758 2.76758C1.51348 3.51641 1.05469 4.27051 0.706641 5.15645C0.374414 6.01602 0.142383 6.99687 0.0791016 8.43125C0.0158203 9.87617 0 10.335 0 14C0 17.665 0.0158203 18.1238 0.0791016 19.5635C0.142383 20.9979 0.374414 21.984 0.706641 22.8383C1.05469 23.7295 1.51348 24.4836 2.26758 25.2324C3.01641 25.9812 3.77051 26.4453 4.65645 26.7881C5.51602 27.1203 6.49688 27.3523 7.93125 27.4156C9.3709 27.4789 9.82969 27.4947 13.4947 27.4947C17.1598 27.4947 17.6186 27.4789 19.0582 27.4156C20.4926 27.3523 21.4787 27.1203 22.333 26.7881C23.2189 26.4453 23.973 25.9812 24.7219 25.2324C25.4707 24.4836 25.9348 23.7295 26.2775 22.8436C26.6098 21.984 26.8418 21.0031 26.9051 19.5688C26.9684 18.1291 26.9842 17.6703 26.9842 14.0053C26.9842 10.3402 26.9684 9.88145 26.9051 8.4418C26.8418 7.00742 26.6098 6.02129 26.2775 5.16699C25.9453 4.27051 25.4865 3.51641 24.7324 2.76758C23.9836 2.01875 23.2295 1.55469 22.3436 1.21191C21.484 0.879687 20.5031 0.647656 19.0688 0.584375C17.6238 0.51582 17.165 0.5 13.5 0.5Z" fill="white"/>
<path d="M13.5 7.06543C9.67148 7.06543 6.56543 10.1715 6.56543 14C6.56543 17.8285 9.67148 20.9346 13.5 20.9346C17.3285 20.9346 20.4346 17.8285 20.4346 14C20.4346 10.1715 17.3285 7.06543 13.5 7.06543ZM13.5 18.4982C11.0162 18.4982 9.00176 16.4838 9.00176 14C9.00176 11.5162 11.0162 9.50176 13.5 9.50176C15.9838 9.50176 17.9982 11.5162 17.9982 14C17.9982 16.4838 15.9838 18.4982 13.5 18.4982Z" fill="white"/>
<path d="M22.3277 6.79125C22.3277 7.68774 21.6 8.4102 20.7088 8.4102C19.8123 8.4102 19.0898 7.68246 19.0898 6.79125C19.0898 5.89476 19.8176 5.1723 20.7088 5.1723C21.6 5.1723 22.3277 5.90004 22.3277 6.79125Z" fill="white"/>
</g>
<defs>
<clipPath id="clip0_189_314">
<rect width="27" height="27" fill="white" transform="translate(0 0.5)"/>
</clipPath>
</defs>
</svg>
