<svg width="86" height="86" viewBox="0 0 86 86" fill="none" xmlns="http://www.w3.org/2000/svg">
<rect width="85.7014" height="85.7014" rx="27.8062" fill="white"/>
<path d="M65.5643 33.1916H66.3043L65.8577 39.1318H51.6439C51.6439 39.1318 51.695 35.7581 51.695 34.1622V24.8015C51.695 23.3468 51.6507 22.3898 51.564 21.9296C51.4763 21.4702 51.2764 21.1487 50.9625 20.9649C50.6486 20.782 49.9894 20.6902 48.9822 20.6902V20.0428H63.9157L64.409 24.8006H63.6843C63.3551 23.4685 62.9519 22.5225 62.4746 21.9636C61.9966 21.4056 61.4292 21.0534 60.7716 20.9079C60.114 20.7625 59.0558 20.6893 57.5969 20.6893H54.6995V28.6992H56.9189C57.9363 28.6992 58.6475 28.6193 59.0532 28.4602C59.459 28.3003 59.7261 28.0587 59.8546 27.7354C59.983 27.4113 60.0468 26.781 60.0468 25.8418H60.7716V32.3741H60.0468C60.0468 31.3133 59.949 30.603 59.7542 30.2415C59.5585 29.8799 59.2736 29.646 58.8993 29.538C58.5241 29.4299 57.8895 29.3763 56.9963 29.3763H54.7004V33.8951C54.7004 36.157 54.8594 37.4875 55.1784 37.8864C55.4966 38.2854 56.3549 38.4845 57.7517 38.4845H59.3084C60.4075 38.4845 61.3118 38.3552 62.0212 38.0974C62.7298 37.8396 63.4053 37.3088 64.0475 36.5067C64.6898 35.7045 65.1959 34.5995 65.5651 33.1916H65.5643Z" fill="#9C4035"/>
<path d="M19.5057 20.691V20.0436H29.0604V20.691H28.6138C27.5862 20.691 26.9134 20.7684 26.5952 20.9232C26.2771 21.0781 26.0635 21.3664 25.9555 21.7892C25.8475 22.2111 25.7939 23.2158 25.7939 24.8014V34.163C25.7939 35.6645 25.8322 36.6478 25.9096 37.1123C25.987 37.5768 26.192 37.9221 26.5263 38.1467C26.8598 38.3721 27.4995 38.4844 28.4454 38.4844H29.0621V39.1318H19.5057V38.4844H20.1225C21.0165 38.4844 21.635 38.3815 21.9795 38.1748C22.324 37.9681 22.5418 37.6465 22.6345 37.2101C22.7272 36.7737 22.7732 35.758 22.7732 34.1622V24.8014C22.7732 23.2813 22.7272 22.3005 22.6345 21.859C22.5418 21.4183 22.3368 21.1129 22.0178 20.9436C21.6996 20.7744 21.0106 20.6901 19.9523 20.6901H19.5057V20.691Z" fill="#9C4035"/>
<path d="M53.5393 47.9609C53.4908 47.5049 53.4202 47.0507 53.3309 46.6006C52.618 46.969 51.9919 47.4947 51.4441 48.1846C50.1655 49.7949 49.5173 52.2014 49.5173 55.337C49.5173 56.921 49.7232 58.3016 50.129 59.4721C50.8359 58.5389 51.4449 57.5522 51.9443 56.5492C53.2586 53.8764 53.8472 50.8897 53.5401 47.9617L53.5393 47.9609Z" fill="#9C4035"/>
<path d="M37.113 34.9874C39.067 36.1647 41.1494 37.0996 42.9639 38.3722C45.2522 40.0055 47.0386 42.258 48.0381 44.759C48.3878 44.5259 48.7536 44.3124 49.1338 44.1176C50.0917 43.6293 51.0997 43.2576 52.152 43.0015C50.7356 39.9357 48.3682 37.234 45.3645 35.3523C43.8469 34.3953 42.063 33.6229 40.4799 32.8947C38.0972 31.7905 35.6762 30.6472 34.322 28.5248C33.5921 27.3756 33.1906 26.0239 33.5002 24.6934C33.9936 22.3771 36.4299 20.5371 39.0398 20.4494C39.5757 20.4222 40.1099 20.4673 40.6305 20.5736C41.5042 20.8263 42.3089 21.261 43.0447 21.8803C44.2858 22.9266 45.151 24.36 45.6401 26.1812H46.4891V19.9254H45.6401C45.5627 20.6774 45.2284 21.3767 44.6363 22.0232C41.226 18.5975 35.0144 18.5652 32.1068 22.5616C31.3642 23.5824 30.9167 24.781 30.8699 26.0086C30.8002 27.1246 31.0665 28.2475 31.4969 29.287C32.51 31.7523 34.749 33.605 37.113 34.9874Z" fill="#9C4035"/>
<path d="M43.4275 59.8192C42.9009 60.2011 42.3318 60.5303 41.7261 60.806C38.4425 62.2929 34.4308 62.1347 31.074 60.8791C28.7806 60.0259 26.7688 58.5874 25.2419 56.7993C23.3321 54.517 22.0536 51.5966 22.3572 48.6941C22.7077 45.3417 25.6944 42.0453 29.6066 42.1474C33.0825 42.2376 35.4473 45.0295 36.9394 47.5968L37.8641 47.3441L35.4507 39.9825L34.5261 40.2351C34.6426 41.2457 34.5839 42.0708 34.3508 42.7114C34.4027 42.5676 32.5312 41.8463 32.3296 41.7782C31.6534 41.5477 30.9473 41.392 30.2276 41.3325C27.463 41.1019 24.535 42.167 22.6141 43.9729C21.3543 45.1579 20.4526 46.6874 20.0536 48.3301C19.6062 50.0986 19.687 51.9386 20.1268 53.6927C21.2318 58.1017 24.5452 61.9875 28.9508 64.0657C33.4627 66.2018 39.0457 66.5982 43.7218 64.611C44.4151 64.3175 45.0795 63.967 45.7123 63.5698C44.689 62.4724 43.9251 61.2202 43.4258 59.8192H43.4275Z" fill="#9C4035"/>
<path d="M64.8957 57.7793H65.6469V65.3613H64.8957C64.6865 64.4996 64.3071 63.7383 63.7601 63.079C61.6743 65.2286 59.0125 66.3039 55.774 66.3039C52.3492 66.3039 49.5497 65.3145 47.3771 63.335C45.2045 61.3555 44.1182 58.738 44.1182 55.4817C44.1182 53.3422 44.6192 51.3287 45.6213 49.4394C46.6234 47.5509 48.021 46.1481 49.8151 45.2328C51.6092 44.3175 53.5776 43.8598 55.7213 43.8598C57.4924 43.8598 59.0967 44.1924 60.5361 44.8577C61.9745 45.5229 63.0498 46.2596 63.7601 47.0686C64.2611 46.1643 64.564 45.2277 64.6686 44.2588H65.4376L65.6477 52.4635H64.8966C64.3726 49.5474 63.3033 47.5203 61.6896 46.3812C60.0759 45.243 58.2554 44.6731 56.2283 44.6731C53.7469 44.6731 51.775 45.5935 50.3127 47.4343C48.8504 49.2752 48.1197 51.9097 48.1197 55.3362C48.1197 58.5824 48.9176 61.0697 50.5135 62.7991C52.1093 64.5285 54.0957 65.3928 56.4724 65.3928C57.7425 65.3928 59.0414 65.1112 60.3693 64.5464C61.6972 63.9824 62.7487 63.0271 63.5236 61.6813C64.2986 60.3356 64.7554 59.0341 64.8957 57.7785V57.7793Z" fill="#9C4035"/>
</svg>
