<svg width="400" height="400" viewBox="0 0 400 400" fill="none" xmlns="http://www.w3.org/2000/svg">
<path d="M390.987 212.073L302.692 234.993L361.264 307.951C369.237 317.884 359.19 332.372 347.719 327.486L263.407 291.582L269.945 386.631C270.838 399.582 254.576 405.124 248.033 394.095L200 313.149L151.967 394.1C145.424 405.128 129.166 399.586 130.055 386.635L136.593 291.587L52.2806 327.49C40.8105 332.376 30.7627 317.888 38.7361 307.956L97.3075 234.997L9.01283 212.077C-3.00428 208.958 -3.00428 191.047 9.01283 187.927L97.3075 165.007L38.7405 92.0441C30.767 82.1117 40.8149 67.6237 52.2849 72.5096L136.597 108.413L130.059 13.3647C129.166 0.413584 145.428 -5.12838 151.971 5.9005L200 86.8508L248.033 5.9005C254.576 -5.12838 270.834 0.413584 269.945 13.3647L263.407 108.413L347.719 72.5096C359.19 67.6237 369.237 82.1117 361.264 92.0441L302.692 165.007L390.987 187.927C403.004 191.042 403.004 208.953 390.987 212.073Z" fill="white" fill-opacity="0.87"/>
</svg>
