<svg width="77" height="77" viewBox="0 0 77 77" fill="none" xmlns="http://www.w3.org/2000/svg">
<path fill-rule="evenodd" clip-rule="evenodd" d="M14.0294 31.2419C13.0357 30.1259 12.4401 28.712 12.3356 27.2215C12.2312 25.7309 12.6238 24.2478 13.4521 23.0041C14.2805 21.7605 15.4977 20.8266 16.9134 20.3485C18.329 19.8704 19.8633 19.8752 21.276 20.362C22.0259 18.8977 23.2799 17.7538 24.8069 17.1414C26.3736 16.5074 28.0378 16.4908 29.5272 16.9836C30.2801 15.543 31.5227 14.4187 33.0312 13.8133C34.6341 13.1647 36.3165 13.167 37.8082 13.672C38.4848 12.3398 39.5839 11.2694 40.9337 10.6284C42.2835 9.98742 43.8076 9.812 45.2677 10.1296C46.7278 10.4472 48.0414 11.2399 49.0029 12.3836C49.9645 13.5273 50.5197 14.9576 50.5818 16.4505L51.8096 46.0778L52.5651 47.9448C53.5342 50.3398 53.5123 53.0217 52.5041 55.4005C51.4959 57.7793 49.584 59.6602 47.189 60.6293C44.794 61.5985 42.1121 61.5765 39.7333 60.5683C37.3545 59.5601 35.4736 57.6482 34.5045 55.2532L33.749 53.3862L14.0294 31.2419ZM38.1271 51.2205L38.1061 51.1685L47.1364 47.5143L48.0499 49.7719C48.5345 50.9694 48.5235 52.3103 48.0194 53.4997C47.5153 54.6892 46.5594 55.6296 45.3619 56.1142C44.1644 56.5987 42.8235 56.5878 41.634 56.0837C40.4446 55.5796 39.5042 54.6236 39.0196 53.4261L38.1271 51.2205ZM46.7835 42.4026L34.807 47.249L17.6656 28.0023C17.4906 27.8079 17.3579 27.5793 17.276 27.3309C17.1942 27.0825 17.1649 26.8198 17.19 26.5595C17.2152 26.2991 17.2943 26.0469 17.4222 25.8188C17.5502 25.5907 17.7242 25.3917 17.9332 25.2345C18.1422 25.0772 18.3816 24.9652 18.6363 24.9056C18.8909 24.8459 19.1552 24.8399 19.4123 24.8879C19.6694 24.9359 19.9137 25.0369 20.1296 25.1844C20.3456 25.3319 20.5285 25.5228 20.6667 25.7448L31.9406 43.6195C32.2914 44.1516 32.8368 44.525 33.4597 44.6595C34.0827 44.7941 34.7336 44.679 35.2727 44.3392C35.8118 43.9993 36.1962 43.4616 36.3434 42.8415C36.4906 42.2214 36.3889 41.5684 36.0601 41.0224L25.691 24.5787C25.5407 24.3438 25.4411 24.0801 25.3986 23.8045C25.3562 23.5288 25.3717 23.2474 25.4444 22.9781C25.517 22.7089 25.6451 22.4578 25.8205 22.2409C25.9958 22.0241 26.2145 21.8462 26.4626 21.7188C26.7107 21.5914 26.9826 21.5172 27.261 21.5011C27.5394 21.4849 27.8182 21.5271 28.0793 21.6249C28.3405 21.7227 28.5783 21.874 28.7776 22.0691C28.9769 22.2641 29.1332 22.4987 29.2366 22.7577L36.7094 41.2247C36.9517 41.8234 37.4219 42.3014 38.0166 42.5535C38.6113 42.8055 39.2818 42.811 39.8806 42.5687C40.4793 42.3264 40.9573 41.8562 41.2093 41.2615C41.4614 40.6668 41.4669 39.9963 41.2246 39.3976L33.7526 20.9329C33.6526 20.677 33.6063 20.4033 33.6167 20.1288C33.6271 19.8543 33.694 19.5849 33.8131 19.3374C33.9322 19.0899 34.1011 18.8696 34.3092 18.6902C34.5172 18.5108 34.76 18.3763 35.0224 18.2949C35.2848 18.2135 35.5611 18.187 35.8341 18.2172C36.1072 18.2473 36.3711 18.3334 36.6094 18.4701C36.8477 18.6067 37.0553 18.791 37.2192 19.0114C37.3831 19.2318 37.4999 19.4837 37.5621 19.7512L41.5505 38.8007C41.6105 39.1191 41.7334 39.4223 41.912 39.6926C42.0907 39.9629 42.3214 40.1949 42.5908 40.3749C42.8602 40.5549 43.1628 40.6793 43.4809 40.7409C43.799 40.8025 44.1262 40.8 44.4433 40.7335C44.7604 40.6671 45.0611 40.538 45.3277 40.3539C45.5943 40.1698 45.8215 39.9344 45.996 39.6614C46.1704 39.3884 46.2887 39.0833 46.3438 38.764C46.3989 38.4447 46.3897 38.1177 46.3168 37.802L42.3322 18.7747L42.3243 18.7358L41.985 17.1181C41.9298 16.8625 41.9285 16.5981 41.9811 16.3419C42.0337 16.0857 42.139 15.8433 42.2904 15.63C42.4417 15.4167 42.6358 15.2372 42.8603 15.103C43.0848 14.9688 43.3347 14.8828 43.5943 14.8504C43.8538 14.818 44.1172 14.84 44.3678 14.9149C44.6184 14.9899 44.8506 15.1162 45.0497 15.2857C45.2489 15.4553 45.4105 15.6644 45.5244 15.8998C45.6384 16.1353 45.702 16.3918 45.7114 16.6532L46.7835 42.4026Z" fill="#012D48"/>
</svg>
