<svg width="63" height="63" viewBox="0 0 63 63" fill="none" xmlns="http://www.w3.org/2000/svg">
<path d="M31.5 5.25C45.9979 5.25 57.75 17.0021 57.75 31.5C57.75 45.9979 45.9979 57.75 31.5 57.75C17.0021 57.75 5.25 45.9979 5.25 31.5C5.25 17.0021 17.0021 5.25 31.5 5.25ZM32.4608 35.0858L23.3546 50.862C27.0508 52.4074 31.1098 52.8717 35.0595 52.2007C34.3624 47.2956 35.0762 42.2934 37.1175 37.779L32.4608 35.0858ZM41.6955 40.4171C40.3339 43.6415 39.804 47.1563 40.1546 50.6389C43.343 49.1966 46.1203 46.9805 48.2344 44.1919L41.6955 40.4171ZM23.2549 29.7728C20.3663 33.7983 16.3923 36.9193 11.7968 38.7713C13.1834 42.5298 15.6162 45.8134 18.8081 48.2344L27.9142 32.4608L23.2549 29.7728ZM52.4002 29.4315L51.723 29.7465C48.8128 31.1844 46.2781 33.2813 44.3205 35.8706L50.862 39.648C52.218 36.4229 52.7467 32.9128 52.4002 29.4315ZM10.5 31.5C10.5 32.2 10.5333 32.8904 10.5998 33.5711C13.7901 32.1359 16.5685 29.9217 18.6795 27.132L12.138 23.3546C11.055 25.9336 10.4981 28.7029 10.5 31.5ZM44.1919 14.7682L35.0858 30.5392L39.7451 33.2299C42.6337 29.202 46.6087 26.0791 51.2059 24.2261C49.9169 20.7399 47.7256 17.6582 44.856 15.2959L44.1919 14.7682ZM31.5 10.5C30.2838 10.5017 29.0964 10.6024 27.9379 10.8019C28.6364 15.707 27.9226 20.7097 25.8799 25.2236L30.5392 27.9142L39.6454 12.138C37.0664 11.055 34.2971 10.4981 31.5 10.5ZM22.8454 12.3637L22.344 12.5947C19.3642 14.0396 16.7683 16.1686 14.7682 18.8081L21.3045 22.5829C22.6657 19.3593 23.1955 15.8454 22.8454 12.3637Z" fill="#012D48"/>
</svg>
