<svg width="65" height="65" viewBox="0 0 65 65" fill="none" xmlns="http://www.w3.org/2000/svg">
<path d="M6.5839 14.9771C4.0632 15.7708 2.65393 18.4752 3.44756 20.9959C3.75737 21.9721 4.37038 22.824 5.19752 23.428C6.02465 24.032 7.02282 24.3565 8.04699 24.3544L20.4184 51.7004C19.9149 52.3162 19.5723 53.0476 19.4216 53.8287C19.2708 54.6098 19.3166 55.4161 19.5548 56.1751C20.3484 58.6958 23.0528 60.1051 25.5735 59.3115L53.0389 50.6642C55.5596 49.8706 56.9688 47.1662 56.1752 44.6454C55.6612 43.0128 54.349 41.8494 52.8026 41.4441L47.2914 12.0288C48.159 11.4523 48.8163 10.6099 49.1646 9.62819C49.5129 8.64644 49.5334 7.57822 49.2231 6.58381C48.4295 4.0631 45.725 2.65384 43.2043 3.44746L6.5839 14.9771ZM6.49926 20.0351C6.236 19.1989 6.70854 18.2921 7.54471 18.0288L44.1651 6.49917C45.0013 6.23591 45.9081 6.70845 46.1714 7.54462C46.4346 8.38078 45.9621 9.28761 45.1259 9.55087L8.50551 21.0805C7.66935 21.3438 6.76252 20.8712 6.49926 20.0351ZM42.9923 13.5768L44.556 21.9312L44.353 23.0551L39.8167 18.5547L40.5784 14.3368L42.9923 13.5768ZM37.1071 15.4297L37.0402 15.803L36.7714 15.5354L37.1071 15.4297ZM33.2971 16.6293L36.3423 19.6537L35.2324 25.7807L30.5886 21.1733L31.2982 17.2586L33.2971 16.6293ZM27.8132 18.3559L27.8031 18.4093L27.7643 18.3712L27.8132 18.3559ZM24.2793 19.4685L27.1036 22.2706L25.9374 28.7088L21.5146 24.3187L22.2789 20.0983L24.2793 19.4685ZM18.7969 21.1946L18.7316 21.5572L18.4688 21.2979L18.7969 21.1946ZM14.9838 22.3951L18.033 25.4215L16.8977 31.7075L15.8561 30.6737L12.4692 23.1868L14.9838 22.3951ZM28.9227 48.1944L25.4972 49.2729L26.186 45.4788L28.9227 48.1944ZM38.0778 45.312L34.7911 46.3468L35.4506 42.7044L38.0778 45.312ZM47.3733 42.3854L43.9462 43.4643L44.633 39.6692L47.3733 42.3854ZM45.3337 35.8059L46.229 30.8566L47.5707 38.0265L45.3337 35.8059ZM19.5963 38.9416L23.397 42.7142L22.7993 46.0201L19.5963 38.9416ZM39.1172 22.4109L43.655 26.9158L42.5447 33.0413L38.0094 28.539L39.1172 22.4109ZM37.3108 32.4033L41.8471 36.9036L40.6809 43.3419L36.1461 38.8411L37.3108 32.4033ZM31.5278 46.2254L26.8836 41.6165L28.0218 35.3346L32.6661 39.9435L31.5278 46.2254ZM33.3652 36.0807L28.7209 31.4718L29.888 25.0366L34.5323 29.6455L33.3652 36.0807ZM24.0981 38.8525L19.6742 34.4643L20.8135 28.1804L25.2363 32.5706L24.0981 38.8525ZM23.6519 53.208L51.1172 44.5608C51.9534 44.2975 52.8602 44.7701 53.1235 45.6063C53.3868 46.4424 52.9142 47.3492 52.078 47.6125L24.6127 56.2598C23.7766 56.523 22.8697 56.0505 22.6065 55.2143C22.3432 54.3781 22.8158 53.4713 23.6519 53.208Z" fill="#012D48"/>
</svg>
