<svg width="51" height="51" viewBox="0 0 51 51" fill="none" xmlns="http://www.w3.org/2000/svg">
<path d="M25.4167 50.8333C21.9007 50.8333 18.5965 50.1657 15.5042 48.8305C12.4118 47.4953 9.72188 45.6848 7.43438 43.399C5.14688 41.1132 3.33636 38.4232 2.00284 35.3292C0.669309 32.2351 0.00169766 28.9309 3.2173e-06 25.4167C-0.00169123 21.9024 0.66592 18.5982 2.00284 15.5042C3.33975 12.4101 5.15027 9.72018 7.43438 7.43438C9.71849 5.14857 12.4084 3.33806 15.5042 2.00283C18.5999 0.667611 21.9041 0 25.4167 0C28.9293 0 32.2334 0.667611 35.3292 2.00283C38.4249 3.33806 41.1149 5.14857 43.399 7.43438C45.6831 9.72018 47.4944 12.4101 48.833 15.5042C50.1717 18.5982 50.8384 21.9024 50.8333 25.4167C50.8283 28.9309 50.1606 32.2351 48.8305 35.3292C47.5004 38.4232 45.6898 41.1132 43.399 43.399C41.1081 45.6848 38.4181 47.4961 35.3292 48.833C32.2402 50.17 28.936 50.8367 25.4167 50.8333ZM38.125 19.0625L41.5563 17.9188L42.5729 14.4875C41.2174 12.4542 39.5865 10.7072 37.6802 9.24658C35.774 7.78597 33.6771 6.69475 31.3896 5.97292L27.9583 8.3875V11.9458L38.125 19.0625ZM12.7083 19.0625L22.875 11.9458V8.3875L19.4438 5.97292C17.1563 6.69306 15.0594 7.78343 13.1531 9.24404C11.2469 10.7047 9.61597 12.4525 8.26042 14.4875L9.27709 17.9188L12.7083 19.0625ZM10.0396 38.6333L12.9625 38.3792L14.8688 34.9479L11.1833 23.8917L7.625 22.6208L5.08334 24.5271C5.08334 27.2806 5.46459 29.79 6.22709 32.0555C6.98959 34.321 8.26042 36.5136 10.0396 38.6333ZM25.4167 45.75C26.5181 45.75 27.5983 45.6653 28.6573 45.4958C29.7163 45.3264 30.7542 45.0722 31.7708 44.7333L33.55 40.9208L31.8979 38.125H18.9354L17.2833 40.9208L19.0625 44.7333C20.0792 45.0722 21.117 45.3264 22.176 45.4958C23.2351 45.6653 24.3153 45.75 25.4167 45.75ZM19.6979 33.0417H31.1354L34.6937 22.875L25.4167 16.3937L16.2667 22.875L19.6979 33.0417ZM40.7938 38.6333C42.5729 36.5153 43.8438 34.3235 44.6063 32.058C45.3688 29.7926 45.75 27.2822 45.75 24.5271L43.2083 22.7479L39.65 23.8917L35.9646 34.9479L37.8708 38.3792L40.7938 38.6333Z" fill="#012D48"/>
</svg>
