<svg width="79" height="79" viewBox="0 0 79 79" fill="none" xmlns="http://www.w3.org/2000/svg">
<path d="M45.9022 31.0144L41.891 34.2544C41.3591 34.6841 40.6783 34.8848 39.9984 34.8125C39.3185 34.7402 38.6951 34.4008 38.2654 33.8689C37.8358 33.3369 37.635 32.6561 37.7074 31.9762C37.7797 31.2963 38.1191 30.6729 38.651 30.2433L42.6622 27.0033C43.1941 26.5736 43.8749 26.3729 44.5548 26.4452C45.2347 26.5175 45.8581 26.8569 46.2877 27.3888C46.7174 27.9208 46.9181 28.6016 46.8458 29.2815C46.7735 29.9614 46.4341 30.5848 45.9022 31.0144ZM30.6287 36.7233L29.9602 37.2633L29.4202 36.5948C28.9906 36.0629 28.3672 35.7234 27.6873 35.6511C27.0073 35.5788 26.3265 35.7796 25.7946 36.2092C25.2627 36.6389 24.9233 37.2622 24.851 37.9421C24.7787 38.6221 24.9794 39.3029 25.4091 39.8348L25.9491 40.5033L25.2805 41.0433C24.7486 41.473 24.4092 42.0963 24.3369 42.7762C24.2646 43.4562 24.4653 44.137 24.895 44.6689C25.3246 45.2008 25.948 45.5402 26.6279 45.6125C27.3078 45.6849 27.9886 45.4841 28.5205 45.0544L29.1891 44.5144L29.7291 45.183C30.1587 45.7149 30.7821 46.0543 31.462 46.1266C32.1419 46.1989 32.8227 45.9982 33.3546 45.5685C33.8866 45.1389 34.226 44.5155 34.2983 43.8356C34.3706 43.1557 34.1699 42.4749 33.7402 41.943L33.2002 41.2744L33.8687 40.7344C34.4006 40.3048 34.7401 39.6814 34.8124 39.0015C34.8847 38.3216 34.684 37.6408 34.2543 37.1089C33.8247 36.577 33.2013 36.2375 32.5214 36.1652C31.8414 36.0929 31.1606 36.2936 30.6287 36.7233ZM69.131 36.2622C69.216 37.5128 69.0263 38.7669 68.5754 39.9364C68.1244 41.106 67.4231 42.1628 66.5205 43.0326C65.6179 43.9024 64.536 44.5643 63.3505 44.9718C62.1651 45.3792 60.9049 45.5224 59.6583 45.3913C59.6032 45.387 59.5484 45.3797 59.4941 45.3693L47.146 43.2663L41.5738 47.7672L41.0395 60.276C41.0367 60.3307 41.0323 60.3868 41.0265 60.4412C40.8321 62.2578 40.0639 63.9652 38.8332 65.3156C37.6026 66.666 35.9736 67.589 34.1827 67.9506C32.3918 68.3123 30.5323 68.0938 28.8741 67.3268C27.2158 66.5599 25.8451 65.2844 24.961 63.6856C24.9509 63.6754 24.9419 63.6642 24.934 63.6522L16.3235 47.3918C14.7631 44.5688 14.2468 41.2864 14.8654 38.1206C15.4839 34.9549 17.1977 32.1082 19.706 30.0802L34.4336 18.1839C36.938 16.1669 40.0694 15.0902 43.2846 15.1405C46.4998 15.1908 49.596 16.365 52.036 18.4594C52.045 18.4696 52.0536 18.4802 52.0616 18.4912L66.1589 30.35C66.1684 30.3607 66.1774 30.3718 66.1859 30.3834C67.041 31.12 67.7415 32.0188 68.2471 33.0279C68.7526 34.037 69.053 35.1363 69.131 36.2622ZM48.4736 35.5656C50.2467 34.1334 51.3782 32.0555 51.6192 29.7891C51.8602 27.5227 51.191 25.2534 49.7589 23.4803C48.3267 21.7073 46.2489 20.5758 43.9824 20.3348C41.716 20.0937 39.4467 20.7629 37.6736 22.1951L22.9477 34.09C21.3797 35.3591 20.3095 37.1405 19.9254 39.1208C19.5413 41.1011 19.8678 43.1535 20.8476 44.9168C20.8564 44.929 20.8659 44.9407 20.8759 44.9519L29.485 61.1968C29.9292 61.989 30.6689 62.5732 31.5424 62.8218C32.416 63.0704 33.3524 62.9633 34.1472 62.5237C34.6197 62.2613 35.0241 61.8916 35.3277 61.4444C35.6314 60.9972 35.8258 60.485 35.8952 59.9489L36.4716 46.3843C36.4871 46.0187 36.5803 45.6607 36.7449 45.3339C36.9095 45.0071 37.1418 44.7191 37.4263 44.4891L48.4736 35.5656ZM62.8297 34.2736L56.8066 29.2103C56.7653 31.0415 56.3577 32.846 55.6077 34.5172C54.8577 36.1884 53.7805 37.6924 52.4398 38.9405L60.2616 40.278C60.9822 40.3395 61.7039 40.1723 62.3239 39.7999C62.9439 39.4276 63.4307 38.8692 63.715 38.2043C63.9993 37.5393 64.0666 36.8015 63.9074 36.0961C63.7481 35.3906 63.3704 34.7533 62.8281 34.275L62.8297 34.2736Z" fill="#012D48"/>
</svg>
