<svg width="74" height="75" viewBox="0 0 74 75" fill="none" xmlns="http://www.w3.org/2000/svg">
<path d="M19.217 30.226L49.8111 11.5641L54.4766 19.2126L52.5645 20.379L53.7308 22.2911L42.258 29.2894C41.7509 29.5987 41.3874 30.0968 41.2476 30.6742C41.1077 31.2515 41.2029 31.8607 41.5123 32.3679L42.6786 34.28C43.2973 35.2943 43.4877 36.5127 43.208 37.6674C42.9283 38.8221 42.2014 39.8183 41.1871 40.437L34.7241 44.3794C33.9975 44.8226 33.5848 45.6515 33.6563 46.4999L34.6752 58.7078C34.7467 59.5562 34.3415 60.3544 33.6149 60.7976L27.1519 64.7399C27.1519 64.7399 21.4155 68.239 22.0658 52.1007C22.0658 52.1007 23.1367 40.9531 15.4881 45.6186L9.65628 36.0579L11.5684 34.8915L11.3581 32.3962L17.0945 28.8971L19.217 30.226ZM40.7665 35.4464L39.6001 33.5342C39.2908 33.0271 38.7927 32.6636 38.2153 32.5238C37.638 32.3839 37.0287 32.4791 36.5216 32.7885L34.6095 33.9548C34.6095 33.9548 33.8637 37.0334 36.9422 37.7791C35.928 38.3978 34.7095 38.5882 33.5548 38.3085C32.4002 38.0288 31.4039 37.3019 30.7852 36.2876C30.2781 36.5969 29.9146 37.0951 29.7748 37.6724C29.6349 38.2497 29.7301 38.859 30.0395 39.3661L31.2058 41.2782C31.5152 41.7854 32.0133 42.1488 32.5906 42.2887C33.168 42.4286 33.7772 42.3333 34.2843 42.024L40.0207 38.5249C40.5279 38.2155 40.8913 37.7174 41.0312 37.1401C41.1711 36.5627 41.0758 35.9535 40.7665 35.4464Z" fill="#012D48"/>
</svg>
