<svg width="124" height="124" viewBox="0 0 124 124" fill="none" xmlns="http://www.w3.org/2000/svg">
<path d="M62.4475 76.2831L62.2499 76.349C61.2749 76.673 60.2112 76.5969 59.2923 76.1375C58.3733 75.6782 57.6741 74.873 57.348 73.8987C57.0055 72.8713 56.2688 72.0221 55.3001 71.5379C54.3315 71.0537 53.2101 70.9741 52.1827 71.3167C51.1554 71.6592 50.3062 72.3959 49.822 73.3646C49.3377 74.3332 49.2582 75.4546 49.6007 76.482C50.6119 79.511 52.7844 82.0146 55.6407 83.4424C58.4971 84.8702 61.8035 85.1054 64.8332 84.0963L65.0308 84.0304L66.3224 87.9041C66.665 88.9315 67.4017 89.7807 68.3703 90.2649C69.339 90.7491 70.4604 90.8287 71.4877 90.4861C72.5151 90.1436 73.3643 89.4069 73.8485 88.4382C74.3327 87.4695 74.4123 86.3482 74.0698 85.3208L72.7781 81.4471C75.8602 80.4194 78.4078 78.2095 79.8604 75.3034C81.3131 72.3974 81.5518 69.0333 80.5241 65.9512C79.4964 62.8691 77.2865 60.3215 74.3804 58.8689C71.4744 57.4162 68.1103 57.1775 65.0282 58.2052L62.4449 50.4578L62.5301 50.4294C64.6219 49.7319 66.8843 50.8629 67.5818 52.9546C67.9244 53.982 68.661 54.8312 69.6297 55.3154C70.5984 55.7996 71.7198 55.8792 72.7471 55.5367C73.7745 55.1941 74.6237 54.4574 75.1079 53.4888C75.5921 52.5201 75.6717 51.3987 75.3291 50.3713C74.3071 47.3132 72.1131 44.7857 69.229 43.344C66.3448 41.9023 63.0064 41.6642 59.9468 42.6821L59.8616 42.7105L58.57 38.8369C58.2274 37.8095 57.4907 36.9603 56.5221 36.4761C55.5534 35.9919 54.432 35.9123 53.4047 36.2548C52.3773 36.5974 51.5281 37.3341 51.0439 38.3028C50.5597 39.2714 50.4801 40.3928 50.8226 41.4202L52.1143 45.2938C50.5882 45.8027 49.1773 46.6072 47.9621 47.6613C46.7469 48.7154 45.7512 49.9986 45.032 51.4375C44.3127 52.8765 43.8838 54.443 43.77 56.0476C43.6561 57.6523 43.8594 59.2637 44.3683 60.7898C44.8771 62.3158 45.6816 63.7268 46.7357 64.942C47.7899 66.1571 49.073 67.1528 50.512 67.8721C51.9509 68.5914 53.5174 69.0202 55.1221 69.1341C56.7267 69.248 58.3381 69.0447 59.8642 68.5358L62.4475 76.2831ZM70.1948 73.6998L67.6115 65.9525C68.6389 65.6099 69.7602 65.6895 70.7289 66.1737C71.6976 66.658 72.4343 67.5072 72.7768 68.5345C73.1194 69.5619 73.0398 70.6832 72.5556 71.6519C72.0714 72.6206 71.2222 73.3573 70.1948 73.6998ZM54.6976 53.0411L57.2809 60.7885C56.2535 61.131 55.1322 61.0515 54.1635 60.5672C53.1948 60.083 52.4581 59.2338 52.1156 58.2065C51.773 57.1791 51.8526 56.0577 52.3368 55.0891C52.821 54.1204 53.6702 53.3837 54.6976 53.0411ZM75.3627 102.107C53.9685 109.241 30.8434 97.6812 23.7096 76.287C16.5758 54.8927 28.1355 31.7676 49.5297 24.6339C70.9239 17.5001 94.049 29.0598 101.183 50.454C108.317 71.8482 96.7569 94.9733 75.3627 102.107Z" fill="#9C4035"/>
</svg>
