<svg width="129" height="129" viewBox="0 0 129 129" fill="none" xmlns="http://www.w3.org/2000/svg">
<g clip-path="url(#clip0_189_271)">
<path d="M97.6459 29.151C95.5001 26.6311 93.012 24.4242 90.254 22.5946L82.7045 36.5715C85.6694 37.3103 88.8005 36.9696 91.5371 35.6103C94.2737 34.2509 96.4371 31.9618 97.6397 29.1528M77.0289 33.5111L84.5784 19.5342C81.5382 18.2308 78.3305 17.3593 75.0487 16.9453C73.3575 19.4919 72.6286 22.5576 72.9926 25.5929C73.3566 28.6282 74.7897 31.4347 77.0351 33.5092M67.2824 29.588C68.4772 33.5895 70.8555 36.9147 73.9141 39.297L70.4273 45.7522L42.4556 30.6384C45.4865 26.6709 49.3186 23.3859 53.7027 20.9969C58.0867 18.6079 62.9246 17.1686 67.9015 16.7724C66.2423 20.8492 66.0239 25.3702 67.2824 29.588ZM76.0967 48.8145L79.5834 42.3593C83.2545 43.6171 87.3376 43.7768 91.339 42.582C95.5561 41.3239 99.2178 38.6647 101.719 35.0438C102.908 37.2087 103.872 39.5214 104.611 41.982C106.842 49.4539 106.493 57.0909 104.075 63.9265L76.0967 48.8145ZM101.373 69.7908L73.0344 54.4838L70.414 59.3353C79.0218 64.7382 85.6988 72.7267 89.4888 82.1565C94.4749 79.0334 98.5211 74.745 101.373 69.7908ZM35.1948 52.8352C35.0728 46.9531 36.4346 41.2198 39.014 36.1183L67.3651 51.4216L64.7446 56.273C55.5067 52.0367 45.1589 50.8345 35.1948 52.8352ZM26.5004 61.9416C24.0438 62.6751 21.9792 64.3545 20.7608 66.6102C19.5423 68.866 19.2699 71.5133 20.0034 73.9699L21.8472 80.145C25.0257 90.7904 32.3028 99.737 42.0777 105.017C51.8526 110.297 63.3246 111.477 73.9699 108.299L80.145 106.455C82.6016 105.721 84.6662 104.042 85.8847 101.786C87.1031 99.5306 87.3755 96.8832 86.642 94.4266L84.7982 88.2515C81.6197 77.6062 74.3426 68.6595 64.5677 63.3797C54.7928 58.0999 43.3208 56.9193 32.6755 60.0978L26.5004 61.9416ZM44.4699 79.4165C44.6708 79.0433 44.9434 78.7135 45.2721 78.4458C45.6007 78.1782 45.9789 77.978 46.385 77.8567C46.7911 77.7355 47.2172 77.6955 47.6388 77.7392C48.0604 77.7828 48.4692 77.9092 48.8418 78.1111L60.8702 84.6081C61.2429 84.8095 61.5724 85.0823 61.8398 85.4109C62.1071 85.7396 62.3071 86.1178 62.4283 86.5237C62.5495 86.9297 62.5896 87.3556 62.5462 87.777C62.5029 88.1985 62.3769 88.6073 62.1756 88.9801C61.9742 89.3529 61.7014 89.6823 61.3727 89.9497C61.044 90.217 60.6659 90.417 60.2599 90.5382C59.8539 90.6594 59.4281 90.6995 59.0066 90.6562C58.5852 90.6128 58.1764 90.4868 57.8036 90.2855L45.7753 83.7885C45.4021 83.5875 45.0722 83.3149 44.8046 82.9863C44.5369 82.6576 44.3367 82.2794 44.2155 81.8733C44.0942 81.4672 44.0543 81.0411 44.0979 80.6196C44.1416 80.198 44.268 79.7891 44.4699 79.4165Z" fill="#9C4035"/>
</g>
<defs>
<clipPath id="clip0_189_271">
<rect width="103.112" height="103.112" fill="white" transform="translate(0 29.5004) rotate(-16.6247)"/>
</clipPath>
</defs>
</svg>
