<svg width="130" height="130" viewBox="0 0 130 130" fill="none" xmlns="http://www.w3.org/2000/svg">
<g clip-path="url(#clip0_189_273)">
<path d="M48.7501 54.6064C51.6013 52.8094 54.7857 51.6062 58.1128 51.0688C61.4398 50.5314 64.8411 50.6707 68.113 51.4786C74.4868 53.0492 80.2191 57.0833 83.8059 63.2447C91.0201 75.543 87.0455 91.6726 74.9432 99.211C72.0936 101.012 68.9092 102.217 65.5815 102.754C62.2539 103.292 58.8519 103.151 55.5803 102.339C48.9789 100.712 43.3843 96.5395 39.8875 90.5727C36.3906 84.6077 35.3777 77.5075 37.067 70.8026C38.7418 64.0061 42.8814 58.2653 48.7501 54.6064ZM68.3965 70.4856L67.0757 64.2272C66.6794 62.3359 64.338 61.7589 63.0433 63.2336L58.9659 68.1618C58.4725 68.7645 57.7424 69.0676 57.003 68.9888L50.7625 68.4169C48.9099 68.2363 47.6335 70.3364 48.6137 71.9577L51.7505 77.1459C52.2161 77.916 52.2194 78.8826 51.7184 79.656L48.4295 84.744C47.3223 86.4373 48.7432 88.6501 50.6916 88.3024L58.42 86.8954C59.0369 86.7714 59.6873 86.9317 60.176 87.3281L66.3659 92.1648C67.9621 93.386 70.2159 92.0787 70.0223 90.0648L69.4739 84.0312C69.4398 83.5897 69.528 83.1474 69.7287 82.7527C69.9294 82.3579 70.2349 82.0261 70.6117 81.7935L75.7999 78.6568C77.4537 77.6845 77.2667 75.2239 75.5422 74.523L69.7505 72.13C69.4095 71.9846 69.1084 71.7593 68.8728 71.4731C68.6371 71.1869 68.4738 70.8482 68.3965 70.4856Z" fill="#9C4035"/>
<path d="M42.5938 11.1103L42.5995 11.129L62.8753 16.1253C65.0541 16.6622 66.7433 18.234 67.3517 20.3845L72.0944 35.4611L83.2748 24.3427C84.8453 22.7291 87.1094 22.0797 89.2882 22.6166L95.9221 24.2513L95.9084 24.2651L110.74 27.92C115.423 29.0739 117.11 34.8534 113.751 38.4064C107.611 44.9423 99.9759 49.8907 91.5022 52.8269C90.1347 53.435 88.6933 53.8249 87.2245 53.9907C94.2231 62.1243 97.3038 73.5592 94.496 84.954C89.942 103.435 71.6297 114.814 53.601 110.371C35.5658 105.927 24.6433 87.3441 29.1973 68.8634C32.0107 57.4459 40.0727 48.7359 50.0768 44.799C48.845 43.9676 47.7494 42.9506 46.8287 41.7841C40.7143 35.2414 36.2524 27.3121 33.8269 18.6773C32.5277 14.011 36.7371 9.66716 41.4523 10.8291L42.5938 11.1103ZM58.7206 42.6724C60.7816 42.4555 62.8583 42.4302 64.9239 42.5971L65.5813 41.945L57.504 18.1994L43.6833 14.7937C46.8072 24.5817 51.6852 33.7199 58.0791 41.7624C58.2881 42.0714 58.5019 42.3748 58.7206 42.6724ZM106.95 30.3835L93.0638 26.9619L74.2826 44.779C76.4945 45.6479 78.6055 46.7545 80.5785 48.0793C80.9222 47.9137 81.2618 47.7397 81.597 47.5576C91.0207 43.4201 99.6118 37.6004 106.95 30.3835ZM36.4586 92.7288C38.4124 96.1063 41.0292 99.0539 44.1515 101.394C47.2737 103.734 50.8371 105.419 54.6271 106.347C62.2692 108.23 70.2417 106.952 77.0752 102.737C91.0905 94.0146 95.6901 75.3485 87.3322 61.1127C85.3682 57.7402 82.746 54.7972 79.6216 52.4586C76.4972 50.1201 72.9344 48.4338 69.1451 47.5C65.3558 46.5663 61.4174 46.4042 57.5642 47.0233C53.711 47.6425 50.0216 49.0302 46.7156 51.1041C39.9127 55.3272 35.045 62.0578 33.1646 69.841C31.2254 77.7107 32.3982 85.8297 36.4586 92.7288Z" fill="#9C4035"/>
</g>
<defs>
<clipPath id="clip0_189_273">
<rect width="107.174" height="107.174" fill="white" transform="translate(25.6425) rotate(13.8428)"/>
</clipPath>
</defs>
</svg>
