<svg width="75" height="39" viewBox="0 0 75 39" fill="none" xmlns="http://www.w3.org/2000/svg">
<g filter="url(#filter0_d_480_280)">
<rect x="4" width="67" height="31" rx="15.5" fill="#012D48"/>
<path d="M13.009 20.879C13.009 21.7277 12.5657 22.152 11.679 22.152C11.2483 22.152 10.9063 22.0443 10.653 21.829C10.3997 21.6137 10.273 21.297 10.273 20.879V13.032C10.273 11.5373 10.5897 10.41 11.223 9.65C11.869 8.87733 12.819 8.491 14.073 8.491C14.9977 8.491 15.764 8.681 16.372 9.061C16.98 9.441 17.3853 9.98567 17.588 10.695C17.7907 9.98567 18.196 9.441 18.804 9.061C19.412 8.681 20.191 8.491 21.141 8.491C22.433 8.491 23.3893 8.86467 24.01 9.612C24.6307 10.3467 24.941 11.4867 24.941 13.032V20.689C24.941 21.2083 24.8397 21.582 24.637 21.81C24.4343 22.038 24.0923 22.152 23.611 22.152C23.1297 22.152 22.775 22.038 22.547 21.81C22.319 21.5693 22.205 21.1957 22.205 20.689V12.88C22.205 11.626 21.6667 10.999 20.59 10.999C20.0453 10.999 19.64 11.1827 19.374 11.55C19.108 11.9047 18.975 12.4747 18.975 13.26V20.499C18.975 21.0183 18.8737 21.392 18.671 21.62C18.4683 21.848 18.1263 21.962 17.645 21.962C17.1637 21.962 16.809 21.848 16.581 21.62C16.353 21.3793 16.239 21.0057 16.239 20.499V13.26C16.239 11.7527 15.7007 10.999 14.624 10.999C13.5473 10.999 13.009 11.626 13.009 12.88V20.879ZM28.9556 22.152C28.0183 22.152 27.5496 21.7277 27.5496 20.879V9.764C27.5496 9.32067 27.6573 8.99767 27.8726 8.795C28.088 8.59233 28.43 8.491 28.8986 8.491C29.8233 8.491 30.2856 8.91533 30.2856 9.764V20.879C30.2856 21.3097 30.178 21.6327 29.9626 21.848C29.76 22.0507 29.4243 22.152 28.9556 22.152ZM33.8707 22.133C33.5034 22.133 33.174 22.019 32.8827 21.791C32.604 21.5503 32.4647 21.2843 32.4647 20.993C32.4647 20.765 32.5597 20.4357 32.7497 20.005C32.9397 19.5743 33.2057 19.0803 33.5477 18.523C33.8897 17.9657 34.276 17.383 34.7067 16.775C35.15 16.1543 35.6187 15.5463 36.1127 14.951L32.8827 10.676C32.6927 10.4227 32.5977 10.144 32.5977 9.84C32.5977 9.44733 32.7244 9.12433 32.9777 8.871C33.2437 8.61767 33.573 8.491 33.9657 8.491C34.485 8.491 34.922 8.719 35.2767 9.175L38.3357 13.165C38.5637 12.861 38.8234 12.5 39.1147 12.082C39.406 11.664 39.6974 11.2333 39.9887 10.79C40.28 10.3467 40.5397 9.92867 40.7677 9.536C41.1604 8.852 41.591 8.51 42.0597 8.51C42.465 8.51 42.788 8.61767 43.0287 8.833C43.282 9.03567 43.4087 9.31433 43.4087 9.669C43.4087 9.897 43.358 10.144 43.2567 10.41C43.0667 10.942 42.6804 11.607 42.0977 12.405C41.515 13.203 40.7614 14.115 39.8367 15.141L43.5037 19.929C43.6177 20.0683 43.6937 20.2077 43.7317 20.347C43.7824 20.4863 43.8077 20.6383 43.8077 20.803C43.8077 21.183 43.6747 21.506 43.4087 21.772C43.1554 22.0253 42.845 22.152 42.4777 22.152C41.857 22.152 41.3377 21.8733 40.9197 21.316L37.7087 17.06C37.3794 17.5413 37.088 17.9847 36.8347 18.39C36.5814 18.7827 36.3154 19.207 36.0367 19.663C35.758 20.1063 35.4287 20.6447 35.0487 21.278C34.846 21.5947 34.6624 21.8163 34.4977 21.943C34.333 22.0697 34.124 22.133 33.8707 22.133ZM46.4584 22C46.2177 22 46.015 21.905 45.8504 21.715C45.6857 21.525 45.6034 21.2843 45.6034 20.993V12.101C45.6034 10.9103 45.9707 10.049 46.7054 9.517C47.44 8.97233 48.6244 8.7 50.2584 8.7H52.6334C53.0514 8.7 53.3744 8.814 53.6024 9.042C53.843 9.25733 53.9634 9.56767 53.9634 9.973C53.9634 10.3657 53.843 10.6697 53.6024 10.885C53.3744 11.1003 53.0514 11.208 52.6334 11.208H50.1254C49.492 11.208 49.036 11.3347 48.7574 11.588C48.4787 11.8413 48.3394 12.253 48.3394 12.823C48.3394 13.0257 48.3267 13.279 48.3014 13.583C48.276 13.8743 48.238 14.21 48.1874 14.59C48.4027 14.4127 48.675 14.2733 49.0044 14.172C49.3337 14.058 49.6567 14.001 49.9734 14.001H51.8544C52.209 14.001 52.4814 14.1087 52.6714 14.324C52.874 14.5393 52.9754 14.837 52.9754 15.217C52.9754 15.597 52.874 15.901 52.6714 16.129C52.4687 16.357 52.1964 16.471 51.8544 16.471H49.8214C49.2387 16.471 48.846 16.5913 48.6434 16.832C48.4407 17.06 48.3394 17.5287 48.3394 18.238V19.492H52.6334C53.102 19.492 53.4377 19.5933 53.6404 19.796C53.8557 19.9987 53.9634 20.328 53.9634 20.784C53.9634 21.2147 53.862 21.525 53.6594 21.715C53.4567 21.905 53.1147 22 52.6334 22H46.4584ZM56.7173 22C56.4766 22 56.2676 21.9113 56.0903 21.734C55.9256 21.544 55.8433 21.3097 55.8433 21.031V12.557C55.8433 11.2397 56.198 10.2327 56.9073 9.536C57.6293 8.83933 58.668 8.491 60.0233 8.491C63.57 8.491 65.3433 10.79 65.3433 15.388C65.3433 17.63 64.9 19.2957 64.0133 20.385C63.1266 21.4617 61.765 22 59.9283 22H56.7173ZM58.5793 19.758H59.9283C60.8656 19.758 61.5433 19.397 61.9613 18.675C62.392 17.9403 62.6073 16.7623 62.6073 15.141C62.6073 13.5957 62.411 12.5 62.0183 11.854C61.6383 11.1953 60.986 10.866 60.0613 10.866C59.0733 10.866 58.5793 11.227 58.5793 11.949V19.758Z" fill="white"/>
</g>
<defs>
<filter id="filter0_d_480_280" x="0" y="0" width="75" height="39" filterUnits="userSpaceOnUse" color-interpolation-filters="sRGB">
<feFlood flood-opacity="0" result="BackgroundImageFix"/>
<feColorMatrix in="SourceAlpha" type="matrix" values="0 0 0 0 0 0 0 0 0 0 0 0 0 0 0 0 0 0 127 0" result="hardAlpha"/>
<feOffset dy="4"/>
<feGaussianBlur stdDeviation="2"/>
<feComposite in2="hardAlpha" operator="out"/>
<feColorMatrix type="matrix" values="0 0 0 0 0 0 0 0 0 0 0 0 0 0 0 0 0 0 0.25 0"/>
<feBlend mode="normal" in2="BackgroundImageFix" result="effect1_dropShadow_480_280"/>
<feBlend mode="normal" in="SourceGraphic" in2="effect1_dropShadow_480_280" result="shape"/>
</filter>
</defs>
</svg>
